<?xml version="1.0" encoding="UTF-8"?>
<svg width="959px" height="354px" viewBox="0 0 959 354" version="1.1" xmlns="http://www.w3.org/2000/svg" xmlns:xlink="http://www.w3.org/1999/xlink">
    <!-- Generator: Sketch 49.3 (51167) - http://www.bohemiancoding.com/sketch -->
    <title>Group 7</title>
    <desc>Created with Sketch.</desc>
    <defs></defs>
    <g id="Page-1" stroke="none" stroke-width="1" fill="none" fill-rule="evenodd">
        <g id="Group-7">
            <polygon id="Rectangle-2-Copy" fill="#FF5052" opacity="0.769134964" points="107 126 263 118 263 94 279 90 287 98 959 66 951 102 939 102 931 118 931 138 883 138 867 162 855 146 843 166 827 166 823 182 811 186 799 198 763 222 727 222 707 262 687 262 683 278 683 302 35 334 43 314 59 314 59 298 51 290 51 282 47 274 75 246 63 234 75 230 95 206 91 198 99 190 99 174 91 166 103 162 99 146 103 134"></polygon>
            <path d="M175.3,259 L191.00846,206.638466 C197.195881,202.516423 202.516423,197.195881 206.638466,191.00846 L310,160 L206.638466,128.99154 C202.516423,122.804119 197.195881,117.483577 191.00846,113.361534 L160,10 L128.99154,113.361534 C122.804119,117.483577 117.483577,122.804119 113.361534,128.99154 L10,160 L113.361534,191.00846 C117.483577,197.195881 122.804119,202.516423 128.99154,206.638466 L144.7,259 L175.3,259 Z" id="Combined-Shape" fill="#FFFFFF"></path>
            <path d="M160,220 L160,254 L172.243473,254 L184.497395,214.787449 C177.01734,218.137156 168.726215,220 160,220 Z M100,160 L26.8208874,160 L105.212551,184.497395 C101.862844,177.01734 100,168.726215 100,160 Z M214.787449,135.502605 C218.137156,142.98266 220,151.273785 220,160 L293.179113,160 L214.787449,135.502605 Z M135.502605,105.212551 C142.98266,101.862844 151.273785,100 160,100 L160,26.8208874 L135.502605,105.212551 Z M50,175.625 L0,160 L50,144.375 L50,50 L144.375,50 L160,0 L175.625,50 L934,50 L934,354 L50,354 L50,175.625 Z M180.625,66 L194.286157,109.715703 L227.882251,92.117749 L210.284297,125.713843 L254,139.375 L254,66 L180.625,66 Z M270,144.375 L320,160 L270,175.625 L270,254 L918,254 L918,66 L270,66 L270,144.375 Z M254,180.625 L210.284297,194.286157 L227.882251,227.882251 L194.286157,210.284297 L180.625,254 L254,254 L254,180.625 Z M139.375,254 L125.713843,210.284297 L92.117749,227.882251 L109.715703,194.286157 L66,180.625 L66,254 L139.375,254 Z M139.375,66 L66,66 L66,139.375 L109.715703,125.713843 L92.117749,92.117749 L125.713843,109.715703 L139.375,66 Z M66,338 L918,338 L918,270 L66,270 L66,338 Z M160,212 C188.718807,212 212,188.718807 212,160 C212,131.281193 188.718807,108 160,108 C131.281193,108 108,131.281193 108,160 C108,188.718807 131.281193,212 160,212 Z M329.33,147.08 C323.689972,147.08 318.335025,146.210009 313.265,144.47 C308.194975,142.729991 303.710019,140.120017 299.81,136.64 L309.53,125.03 C315.830031,130.070025 322.639963,132.59 329.96,132.59 C332.300012,132.59 334.084994,132.215004 335.315,131.465 C336.545006,130.714996 337.16,129.650007 337.16,128.27 L337.16,128.09 C337.16,127.429997 337.010001,126.845003 336.71,126.335 C336.409998,125.824997 335.855004,125.330002 335.045,124.85 C334.234996,124.369998 333.155007,123.905002 331.805,123.455 C330.454993,123.004998 328.700011,122.540002 326.54,122.06 C323.179983,121.279996 320.060014,120.425005 317.18,119.495 C314.299986,118.564995 311.795011,117.365007 309.665,115.895 C307.534989,114.424993 305.855006,112.595011 304.625,110.405 C303.394994,108.214989 302.78,105.500016 302.78,102.26 L302.78,102.08 C302.78,99.1399853 303.334994,96.4400123 304.445,93.98 C305.555006,91.5199877 307.174989,89.390009 309.305,87.59 C311.435011,85.789991 313.999985,84.3950049 317,83.405 C320.000015,82.414995 323.389981,81.92 327.17,81.92 C332.570027,81.92 337.384979,82.6249929 341.615,84.035 C345.845021,85.445007 349.669983,87.5299862 353.09,90.29 L344.36,102.62 C341.479986,100.57999 338.525015,99.0350052 335.495,97.985 C332.464985,96.9349947 329.540014,96.41 326.72,96.41 C324.619989,96.41 323.045005,96.7999961 321.995,97.58 C320.944995,98.3600039 320.42,99.3199943 320.42,100.46 L320.42,100.64 C320.42,101.360004 320.584998,101.989997 320.915,102.53 C321.245002,103.070003 321.814996,103.564998 322.625,104.015 C323.435004,104.465002 324.544993,104.914998 325.955,105.365 C327.365007,105.815002 329.149989,106.279998 331.31,106.76 C334.910018,107.540004 338.164985,108.454995 341.075,109.505 C343.985015,110.555005 346.45999,111.829992 348.5,113.33 C350.54001,114.830007 352.099995,116.644989 353.18,118.775 C354.260005,120.905011 354.8,123.439985 354.8,126.38 L354.8,126.56 C354.8,129.800016 354.185006,132.679987 352.955,135.2 C351.724994,137.720013 350.000011,139.864991 347.78,141.635 C345.559989,143.405009 342.890016,144.754995 339.77,145.685 C336.649984,146.615005 333.170019,147.08 329.33,147.08 Z M396.94,147.26 C392.079976,147.26 387.580021,146.405009 383.44,144.695 C379.299979,142.984991 375.730015,140.660015 372.73,137.72 C369.729985,134.779985 367.375009,131.33002 365.665,127.37 C363.954991,123.40998 363.1,119.180022 363.1,114.68 L363.1,114.5 C363.1,109.999977 363.954991,105.75502 365.665,101.765 C367.375009,97.77498 369.759985,94.2950148 372.82,91.325 C375.880015,88.3549851 379.479979,86.0150085 383.62,84.305 C387.760021,82.5949914 392.259976,81.74 397.12,81.74 C401.980024,81.74 406.479979,82.5949914 410.62,84.305 C414.760021,86.0150085 418.329985,88.3399853 421.33,91.28 C424.330015,94.2200147 426.684991,97.6699802 428.395,101.63 C430.105009,105.59002 430.96,109.819977 430.96,114.32 L430.96,114.5 C430.96,119.000022 430.105009,123.24498 428.395,127.235 C426.684991,131.22502 424.300015,134.704985 421.24,137.675 C418.179985,140.645015 414.580021,142.984991 410.44,144.695 C406.299979,146.405009 401.800024,147.26 396.94,147.26 Z M397.12,131.51 C399.520012,131.51 401.70999,131.060004 403.69,130.16 C405.67001,129.259995 407.349993,128.045008 408.73,126.515 C410.110007,124.984992 411.189996,123.20001 411.97,121.16 C412.750004,119.11999 413.14,116.960011 413.14,114.68 L413.14,114.5 C413.14,112.219989 412.750004,110.06001 411.97,108.02 C411.189996,105.97999 410.080007,104.180008 408.64,102.62 C407.199993,101.059992 405.49001,99.8150046 403.51,98.885 C401.52999,97.9549953 399.340012,97.49 396.94,97.49 C394.539988,97.49 392.36501,97.9399955 390.415,98.84 C388.46499,99.7400045 386.785007,100.954992 385.375,102.485 C383.964993,104.015008 382.885004,105.79999 382.135,107.84 C381.384996,109.88001 381.01,112.039989 381.01,114.32 L381.01,114.5 C381.01,116.780011 381.399996,118.93999 382.18,120.98 C382.960004,123.02001 384.054993,124.819992 385.465,126.38 C386.875007,127.940008 388.56999,129.184995 390.55,130.115 C392.53001,131.045005 394.719988,131.51 397.12,131.51 Z M470.4,147.17 C465.899977,147.17 461.850018,146.600006 458.25,145.46 C454.649982,144.319994 451.590013,142.565012 449.07,140.195 C446.549987,137.824988 444.615007,134.825018 443.265,131.195 C441.914993,127.564982 441.24,123.290025 441.24,118.37 L441.24,83 L458.97,83 L458.97,118.01 C458.97,122.570023 460.019989,125.944989 462.12,128.135 C464.22001,130.325011 467.039982,131.42 470.58,131.42 C474.120018,131.42 476.939989,130.37001 479.04,128.27 C481.14001,126.169989 482.19,122.900022 482.19,118.46 L482.19,83 L499.92,83 L499.92,117.92 C499.92,123.020026 499.215007,127.414982 497.805,131.105 C496.394993,134.795018 494.415013,137.824988 491.865,140.195 C489.314987,142.565012 486.225018,144.319994 482.595,145.46 C478.964982,146.600006 474.900022,147.17 470.4,147.17 Z M527.66,98.3 L508.76,98.3 L508.76,83 L564.02,83 L564.02,98.3 L545.12,98.3 L545.12,146 L527.66,146 L527.66,98.3 Z M573.67,83 L591.13,83 L591.13,106.58 L613.54,106.58 L613.54,83 L631,83 L631,146 L613.54,146 L613.54,122.06 L591.13,122.06 L591.13,146 L573.67,146 L573.67,83 Z M644.16,83 L694.83,83 L694.83,97.85 L661.44,97.85 L661.44,107.39 L691.68,107.39 L691.68,121.16 L661.44,121.16 L661.44,131.15 L695.28,131.15 L695.28,146 L644.16,146 L644.16,83 Z M727.97,82.55 L744.8,82.55 L771.62,146 L752.9,146 L748.31,134.75 L724.01,134.75 L719.51,146 L701.15,146 L727.97,82.55 Z M743.27,121.16 L736.25,103.25 L729.14,121.16 L743.27,121.16 Z M804.49,147.08 C798.849972,147.08 793.495025,146.210009 788.425,144.47 C783.354975,142.729991 778.870019,140.120017 774.97,136.64 L784.69,125.03 C790.990031,130.070025 797.799963,132.59 805.12,132.59 C807.460012,132.59 809.244994,132.215004 810.475,131.465 C811.705006,130.714996 812.32,129.650007 812.32,128.27 L812.32,128.09 C812.32,127.429997 812.170001,126.845003 811.87,126.335 C811.569998,125.824997 811.015004,125.330002 810.205,124.85 C809.394996,124.369998 808.315007,123.905002 806.965,123.455 C805.614993,123.004998 803.860011,122.540002 801.7,122.06 C798.339983,121.279996 795.220014,120.425005 792.34,119.495 C789.459986,118.564995 786.955011,117.365007 784.825,115.895 C782.694989,114.424993 781.015006,112.595011 779.785,110.405 C778.554994,108.214989 777.94,105.500016 777.94,102.26 L777.94,102.08 C777.94,99.1399853 778.494994,96.4400123 779.605,93.98 C780.715006,91.5199877 782.334989,89.390009 784.465,87.59 C786.595011,85.789991 789.159985,84.3950049 792.16,83.405 C795.160015,82.414995 798.549981,81.92 802.33,81.92 C807.730027,81.92 812.544979,82.6249929 816.775,84.035 C821.005021,85.445007 824.829983,87.5299862 828.25,90.29 L819.52,102.62 C816.639986,100.57999 813.685015,99.0350052 810.655,97.985 C807.624985,96.9349947 804.700014,96.41 801.88,96.41 C799.779989,96.41 798.205005,96.7999961 797.155,97.58 C796.104995,98.3600039 795.58,99.3199943 795.58,100.46 L795.58,100.64 C795.58,101.360004 795.744998,101.989997 796.075,102.53 C796.405002,103.070003 796.974996,103.564998 797.785,104.015 C798.595004,104.465002 799.704993,104.914998 801.115,105.365 C802.525007,105.815002 804.309989,106.279998 806.47,106.76 C810.070018,107.540004 813.324985,108.454995 816.235,109.505 C819.145015,110.555005 821.61999,111.829992 823.66,113.33 C825.70001,114.830007 827.259995,116.644989 828.34,118.775 C829.420005,120.905011 829.96,123.439985 829.96,126.38 L829.96,126.56 C829.96,129.800016 829.345006,132.679987 828.115,135.2 C826.884994,137.720013 825.160011,139.864991 822.94,141.635 C820.719989,143.405009 818.050016,144.754995 814.93,145.685 C811.809984,146.615005 808.330019,147.08 804.49,147.08 Z M855.81,98.3 L836.91,98.3 L836.91,83 L892.17,83 L892.17,98.3 L873.27,98.3 L873.27,146 L855.81,146 L855.81,98.3 Z M304.58,173 L334.37,173 C339.230024,173 343.339983,173.599994 346.7,174.8 C350.060017,176.000006 352.789989,177.679989 354.89,179.84 C358.610019,183.440018 360.47,188.329969 360.47,194.51 L360.47,194.69 C360.47,199.550024 359.300012,203.569984 356.96,206.75 C354.619988,209.930016 351.47002,212.359992 347.51,214.04 L362.54,236 L342.38,236 L329.69,216.92 L322.04,216.92 L322.04,236 L304.58,236 L304.58,173 Z M333.56,203.24 C336.560015,203.24 338.869992,202.565007 340.49,201.215 C342.110008,199.864993 342.92,198.050011 342.92,195.77 L342.92,195.59 C342.92,193.069987 342.080008,191.195006 340.4,189.965 C338.719992,188.734994 336.410015,188.12 333.47,188.12 L322.04,188.12 L322.04,203.24 L333.56,203.24 Z M399.64,237.17 C395.139977,237.17 391.090018,236.600006 387.49,235.46 C383.889982,234.319994 380.830013,232.565012 378.31,230.195 C375.789987,227.824988 373.855007,224.825018 372.505,221.195 C371.154993,217.564982 370.48,213.290025 370.48,208.37 L370.48,173 L388.21,173 L388.21,208.01 C388.21,212.570023 389.259989,215.944989 391.36,218.135 C393.46001,220.325011 396.279982,221.42 399.82,221.42 C403.360018,221.42 406.179989,220.370011 408.28,218.27 C410.38001,216.169989 411.43,212.900022 411.43,208.46 L411.43,173 L429.16,173 L429.16,207.92 C429.16,213.020026 428.455007,217.414982 427.045,221.105 C425.634993,224.795018 423.655013,227.824988 421.105,230.195 C418.554987,232.565012 415.465018,234.319994 411.835,235.46 C408.204982,236.600006 404.140022,237.17 399.64,237.17 Z M441.51,173 L473.82,173 C477.78002,173 481.169986,173.479995 483.99,174.44 C486.810014,175.400005 489.149991,176.809991 491.01,178.67 C492.270006,179.930006 493.259996,181.399992 493.98,183.08 C494.700004,184.760008 495.06,186.679989 495.06,188.84 L495.06,189.02 C495.06,192.680018 494.145009,195.634989 492.315,197.885 C490.484991,200.135011 488.160014,201.859994 485.34,203.06 C489.180019,204.320006 492.224989,206.134988 494.475,208.505 C496.725011,210.875012 497.85,214.189979 497.85,218.45 L497.85,218.63 C497.85,224.090027 495.765021,228.349985 491.595,231.41 C487.424979,234.470015 481.560038,236 474,236 L441.51,236 L441.51,173 Z M472.02,221.96 C474.720013,221.96 476.789993,221.465005 478.23,220.475 C479.670007,219.484995 480.39,218.060009 480.39,216.2 L480.39,216.02 C480.39,214.279991 479.700007,212.900005 478.32,211.88 C476.939993,210.859995 474.780015,210.35 471.84,210.35 L458.52,210.35 L458.52,221.96 L472.02,221.96 Z M469.5,198.11 C472.200013,198.11 474.254993,197.660004 475.665,196.76 C477.075007,195.859995 477.78,194.480009 477.78,192.62 L477.78,192.44 C477.78,190.699991 477.120007,189.365005 475.8,188.435 C474.479993,187.504995 472.500013,187.04 469.86,187.04 L458.52,187.04 L458.52,198.11 L469.5,198.11 Z M526.04,212.42 L502.1,173 L521.99,173 L534.95,195.95 L548,173 L567.53,173 L543.59,212.15 L543.59,236 L526.04,236 L526.04,212.42 Z M583,180 L897,180 L897,196 L583,196 L583,180 Z M583,212 L897,212 L897,228 L583,228 L583,212 Z M95.592,287.16 L104.568,287.16 L118.872,321 L108.888,321 L106.44,315 L93.48,315 L91.08,321 L81.288,321 L95.592,287.16 Z M103.752,307.752 L100.008,298.2 L96.216,307.752 L103.752,307.752 Z M138.526,321.624 C136.125988,321.624 133.96601,321.320003 132.046,320.712 C130.12599,320.103997 128.494007,319.168006 127.15,317.904 C125.805993,316.639994 124.774004,315.04001 124.054,313.104 C123.333996,311.16799 122.974,308.888013 122.974,306.264 L122.974,287.4 L132.43,287.4 L132.43,306.072 C132.43,308.504012 132.989994,310.303994 134.11,311.472 C135.230006,312.640006 136.733991,313.224 138.622,313.224 C140.510009,313.224 142.013994,312.664006 143.134,311.544 C144.254006,310.423994 144.814,308.680012 144.814,306.312 L144.814,287.4 L154.27,287.4 L154.27,306.024 C154.27,308.744014 153.894004,311.08799 153.142,313.056 C152.389996,315.02401 151.334007,316.639994 149.974,317.904 C148.613993,319.168006 146.96601,320.103997 145.03,320.712 C143.09399,321.320003 140.926012,321.624 138.526,321.624 Z M178.196,321.672 C175.571987,321.672 173.148011,321.248004 170.924,320.4 C168.699989,319.551996 166.772008,318.360008 165.14,316.824 C163.507992,315.287992 162.228005,313.456011 161.3,311.328 C160.371995,309.199989 159.908,306.856013 159.908,304.296 L159.908,304.2 C159.908,301.767988 160.363995,299.488011 161.276,297.36 C162.188005,295.231989 163.443992,293.376008 165.044,291.792 C166.644008,290.207992 168.555989,288.968004 170.78,288.072 C173.004011,287.175996 175.411987,286.728 178.004,286.728 C180.980015,286.728 183.547989,287.159996 185.708,288.024 C187.868011,288.888004 189.843991,290.087992 191.636,291.624 L186.164,298.2 C184.947994,297.175995 183.708006,296.392003 182.444,295.848 C181.179994,295.303997 179.716008,295.032 178.052,295.032 C176.835994,295.032 175.708005,295.271998 174.668,295.752 C173.627995,296.232002 172.724004,296.887996 171.956,297.72 C171.187996,298.552004 170.580002,299.527994 170.132,300.648 C169.683998,301.768006 169.46,302.967994 169.46,304.248 L169.46,304.344 C169.46,305.688007 169.683998,306.935994 170.132,308.088 C170.580002,309.240006 171.211996,310.223996 172.028,311.04 C172.844004,311.856004 173.803994,312.495998 174.908,312.96 C176.012005,313.424002 177.235993,313.656 178.58,313.656 C180.756011,313.656 182.547993,313.192005 183.956,312.264 L183.956,308.184 L177.332,308.184 L177.332,301.368 L192.788,301.368 L192.788,316.488 C190.995991,317.960007 188.884012,319.191995 186.452,320.184 C184.019988,321.176005 181.268015,321.672 178.196,321.672 Z M198.33,311.64 L207.834,311.64 L207.834,321 L198.33,321 L198.33,311.64 Z M227.318,313.992 L239.894,304.392 C241.462008,303.175994 242.573997,302.120004 243.23,301.224 C243.886003,300.327996 244.214,299.368005 244.214,298.344 C244.214,297.287995 243.870003,296.456003 243.182,295.848 C242.493996,295.239997 241.590006,294.936 240.47,294.936 C239.349994,294.936 238.286005,295.279997 237.278,295.968 C236.269995,296.656003 235.110006,297.751992 233.798,299.256 L227.51,294.024 C228.406004,292.871994 229.317995,291.848004 230.246,290.952 C231.174005,290.055996 232.173995,289.304003 233.246,288.696 C234.318005,288.087997 235.501993,287.624002 236.798,287.304 C238.094006,286.983998 239.557992,286.824 241.19,286.824 C243.014009,286.824 244.685992,287.087997 246.206,287.616 C247.726008,288.144003 249.029994,288.871995 250.118,289.8 C251.206005,290.728005 252.053997,291.855993 252.662,293.184 C253.270003,294.512007 253.574,295.959992 253.574,297.528 L253.574,297.624 C253.574,298.968007 253.406002,300.167995 253.07,301.224 C252.733998,302.280005 252.230003,303.263995 251.558,304.176 C250.885997,305.088005 250.070005,305.959996 249.11,306.792 C248.149995,307.624004 247.046006,308.487996 245.798,309.384 L240.038,313.416 L253.91,313.416 L253.91,321 L227.318,321 L227.318,313.992 Z M273.442,301.992 L289.186,301.992 L289.186,310.008 L273.442,310.008 L273.442,301.992 Z M322.11,321.672 C318.845984,321.672 316.054011,321.136005 313.734,320.064 C311.413988,318.991995 309.438008,317.544009 307.806,315.72 L313.662,309.864 C314.878006,311.080006 316.133993,312.023997 317.43,312.696 C318.726006,313.368003 320.141992,313.704 321.678,313.704 C323.022007,313.704 324.077996,313.392003 324.846,312.768 C325.614004,312.143997 325.998,311.320005 325.998,310.296 L325.998,310.2 C325.998,309.111995 325.526005,308.264003 324.582,307.656 C323.637995,307.047997 322.286009,306.744 320.526,306.744 L316.59,306.744 L315.246,301.896 L322.974,294.936 L310.11,294.936 L310.11,287.4 L334.398,287.4 L334.398,294.072 L326.382,300.936 C327.566006,301.192001 328.685995,301.559998 329.742,302.04 C330.798005,302.520002 331.725996,303.143996 332.526,303.912 C333.326004,304.680004 333.949998,305.591995 334.398,306.648 C334.846002,307.704005 335.07,308.951993 335.07,310.392 L335.07,310.488 C335.07,312.184008 334.742003,313.719993 334.086,315.096 C333.429997,316.472007 332.526006,317.647995 331.374,318.624 C330.221994,319.600005 328.854008,320.351997 327.27,320.88 C325.685992,321.408003 323.966009,321.672 322.11,321.672 Z M338.98,325.416 C342.276016,325.031998 343.876,323.528013 343.78,320.904 L340.084,320.904 L340.084,311.544 L349.588,311.544 L349.588,319.176 C349.588,320.968009 349.356002,322.471994 348.892,323.688 C348.427997,324.904006 347.764004,325.887996 346.9,326.64 C346.035995,327.392004 344.996006,327.951998 343.78,328.32 C342.563994,328.688002 341.204007,328.888 339.7,328.92 L338.98,325.416 Z M369.072,313.992 L381.648,304.392 C383.216008,303.175994 384.327996,302.120004 384.984,301.224 C385.640003,300.327996 385.968,299.368005 385.968,298.344 C385.968,297.287995 385.624003,296.456003 384.936,295.848 C384.247996,295.239997 383.344005,294.936 382.224,294.936 C381.103994,294.936 380.040005,295.279997 379.032,295.968 C378.023995,296.656003 376.864006,297.751992 375.552,299.256 L369.264,294.024 C370.160004,292.871994 371.071995,291.848004 372,290.952 C372.928004,290.055996 373.927994,289.304003 375,288.696 C376.072005,288.087997 377.255993,287.624002 378.552,287.304 C379.848006,286.983998 381.311992,286.824 382.944,286.824 C384.768009,286.824 386.439992,287.087997 387.96,287.616 C389.480007,288.144003 390.783994,288.871995 391.872,289.8 C392.960005,290.728005 393.807997,291.855993 394.416,293.184 C395.024003,294.512007 395.328,295.959992 395.328,297.528 L395.328,297.624 C395.328,298.968007 395.160001,300.167995 394.824,301.224 C394.487998,302.280005 393.984003,303.263995 393.312,304.176 C392.639996,305.088005 391.824005,305.959996 390.864,306.792 C389.903995,307.624004 388.800006,308.487996 387.552,309.384 L381.792,313.416 L395.664,313.416 L395.664,321 L369.072,321 L369.072,313.992 Z M416.182,321.672 C413.781988,321.672 411.622009,321.216005 409.702,320.304 C407.78199,319.391995 406.158006,318.144008 404.83,316.56 C403.501993,314.975992 402.478003,313.128011 401.758,311.016 C401.037996,308.903989 400.678,306.664012 400.678,304.296 L400.678,304.2 C400.678,301.831988 401.045996,299.584011 401.782,297.456 C402.518003,295.327989 403.557993,293.472008 404.902,291.888 C406.246006,290.303992 407.87799,289.048005 409.798,288.12 C411.718009,287.191995 413.877988,286.728 416.278,286.728 C418.678012,286.728 420.82999,287.183995 422.734,288.096 C424.638009,289.008005 426.261993,290.255992 427.606,291.84 C428.950006,293.424008 429.981996,295.271989 430.702,297.384 C431.422003,299.496011 431.782,301.735988 431.782,304.104 L431.782,304.2 C431.782,306.568012 431.422003,308.815989 430.702,310.944 C429.981996,313.072011 428.942007,314.927992 427.582,316.512 C426.221993,318.096008 424.582009,319.351995 422.662,320.28 C420.74199,321.208005 418.582012,321.672 416.182,321.672 Z M416.278,313.416 C417.206004,313.416 418.053996,313.192002 418.822,312.744 C419.590004,312.295998 420.237997,311.664004 420.766,310.848 C421.294002,310.031996 421.701998,309.072006 421.99,307.968 C422.278001,306.863994 422.422,305.640007 422.422,304.296 L422.422,304.2 C422.422,302.855993 422.270001,301.624006 421.966,300.504 C421.661998,299.383994 421.238002,298.416004 420.694,297.6 C420.149997,296.783996 419.494004,296.144002 418.726,295.68 C417.957996,295.215998 417.110004,294.984 416.182,294.984 C415.253995,294.984 414.414004,295.207998 413.662,295.656 C412.909996,296.104002 412.262002,296.727996 411.718,297.528 C411.173997,298.328004 410.758001,299.287994 410.47,300.408 C410.181998,301.528006 410.038,302.759993 410.038,304.104 L410.038,304.2 C410.038,305.544007 410.189998,306.783994 410.494,307.92 C410.798001,309.056006 411.221997,310.031996 411.766,310.848 C412.310002,311.664004 412.965996,312.295998 413.734,312.744 C414.502004,313.192002 415.349995,313.416 416.278,313.416 Z M442.844,295.848 L437.18,297.144 L435.404,289.944 L445.244,287.16 L452.012,287.16 L452.012,321 L442.844,321 L442.844,295.848 Z M471.666,321.576 C469.64999,321.576 467.794008,321.336002 466.098,320.856 C464.401991,320.375998 462.946006,319.704004 461.73,318.84 C460.513994,317.975996 459.562003,316.944006 458.874,315.744 C458.185996,314.543994 457.842,313.208007 457.842,311.736 L457.842,311.64 C457.842,309.59199 458.345995,307.928006 459.354,306.648 C460.362005,305.367994 461.777991,304.344004 463.602,303.576 C462.289993,302.839996 461.194004,301.896006 460.314,300.744 C459.433995,299.591994 458.994,298.104009 458.994,296.28 L458.994,296.184 C458.994,294.839993 459.297997,293.600006 459.906,292.464 C460.514003,291.327994 461.377994,290.336004 462.498,289.488 C463.618005,288.639996 464.953992,287.984002 466.506,287.52 C468.058007,287.055998 469.77799,286.824 471.666,286.824 C473.554009,286.824 475.273992,287.055998 476.826,287.52 C478.378007,287.984002 479.713994,288.639996 480.834,289.488 C481.954005,290.336004 482.817997,291.327994 483.426,292.464 C484.034003,293.600006 484.338,294.839993 484.338,296.184 L484.338,296.28 C484.338,298.104009 483.898004,299.591994 483.018,300.744 C482.137995,301.896006 481.042006,302.839996 479.73,303.576 C480.594004,303.960002 481.377996,304.399998 482.082,304.896 C482.786003,305.392002 483.385997,305.959997 483.882,306.6 C484.378002,307.240003 484.769998,307.967996 485.058,308.784 C485.346001,309.600004 485.49,310.535995 485.49,311.592 L485.49,311.688 C485.49,313.192008 485.146003,314.551994 484.458,315.768 C483.769996,316.984006 482.818006,318.023996 481.602,318.888 C480.385994,319.752004 478.930008,320.415998 477.234,320.88 C475.537991,321.344002 473.68201,321.576 471.666,321.576 Z M471.666,314.616 C473.234008,314.616 474.433996,314.240004 475.266,313.488 C476.098004,312.735996 476.514,311.848005 476.514,310.824 L476.514,310.728 C476.514,309.639995 476.066004,308.760003 475.17,308.088 C474.273995,307.415997 473.106007,307.08 471.666,307.08 C470.225993,307.08 469.058004,307.415997 468.162,308.088 C467.265995,308.760003 466.818,309.639995 466.818,310.728 L466.818,310.824 C466.818,311.848005 467.233996,312.735996 468.066,313.488 C468.898004,314.240004 470.097992,314.616 471.666,314.616 Z M471.666,301.032 C472.914006,301.032 473.913996,300.688003 474.666,300 C475.418003,299.311997 475.794,298.440005 475.794,297.384 L475.794,297.288 C475.794,296.359995 475.426003,295.536004 474.69,294.816 C473.953996,294.095996 472.946006,293.736 471.666,293.736 C470.385993,293.736 469.378003,294.087996 468.642,294.792 C467.905996,295.496004 467.538,296.311995 467.538,297.24 L467.538,297.336 C467.538,298.392005 467.913996,299.271996 468.666,299.976 C469.418003,300.680004 470.417993,301.032 471.666,301.032 Z M505.598,287.4 L514.286,287.4 L528.11,305.16 L528.11,287.4 L537.326,287.4 L537.326,321 L529.166,321 L514.814,302.568 L514.814,321 L505.598,321 L505.598,287.4 Z M556.164,287.16 L565.14,287.16 L579.444,321 L569.46,321 L567.012,315 L554.052,315 L551.652,321 L541.86,321 L556.164,287.16 Z M564.324,307.752 L560.58,298.2 L556.788,307.752 L564.324,307.752 Z M597.178,321.576 C594.169985,321.576 591.314013,321.112005 588.61,320.184 C585.905986,319.255995 583.51401,317.864009 581.434,316.008 L586.618,309.816 C589.978016,312.504013 593.60998,313.848 597.514,313.848 C598.762006,313.848 599.713996,313.648002 600.37,313.248 C601.026003,312.847998 601.354,312.280004 601.354,311.544 L601.354,311.448 C601.354,311.095998 601.274,310.784001 601.114,310.512 C600.953999,310.239999 600.658002,309.976001 600.226,309.72 C599.793997,309.463999 599.218003,309.216001 598.498,308.976 C597.777996,308.735999 596.842005,308.488001 595.69,308.232 C593.897991,307.815998 592.234007,307.360002 590.698,306.864 C589.161992,306.367998 587.826005,305.728004 586.69,304.944 C585.553994,304.159996 584.658003,303.184006 584.002,302.016 C583.345996,300.847994 583.018,299.400009 583.018,297.672 L583.018,297.576 C583.018,296.007992 583.313997,294.568007 583.906,293.256 C584.498003,291.943993 585.361994,290.808005 586.498,289.848 C587.634005,288.887995 589.001992,288.144003 590.602,287.616 C592.202008,287.087997 594.00999,286.824 596.026,286.824 C598.906014,286.824 601.473988,287.199996 603.73,287.952 C605.986011,288.704004 608.025991,289.815993 609.85,291.288 L605.194,297.864 C603.657992,296.775995 602.082008,295.952003 600.466,295.392 C598.849992,294.831997 597.290007,294.552 595.786,294.552 C594.665994,294.552 593.826002,294.759998 593.266,295.176 C592.705997,295.592002 592.426,296.103997 592.426,296.712 L592.426,296.808 C592.426,297.192002 592.513999,297.527999 592.69,297.816 C592.866001,298.104001 593.169997,298.367999 593.602,298.608 C594.034002,298.848001 594.625996,299.087999 595.378,299.328 C596.130003,299.568001 597.081994,299.815999 598.234,300.072 C600.154009,300.488002 601.889992,300.975997 603.442,301.536 C604.994007,302.096003 606.313994,302.775996 607.402,303.576 C608.490005,304.376004 609.321997,305.343994 609.898,306.48 C610.474003,307.616006 610.762,308.967992 610.762,310.536 L610.762,310.632 C610.762,312.360009 610.434003,313.895993 609.778,315.24 C609.121996,316.584007 608.202006,317.727995 607.018,318.672 C605.833994,319.616005 604.410008,320.335998 602.746,320.832 C601.081991,321.328002 599.22601,321.576 597.178,321.576 Z M616.544,287.4 L625.856,287.4 L625.856,299.976 L637.808,299.976 L637.808,287.4 L647.12,287.4 L647.12,321 L637.808,321 L637.808,308.232 L625.856,308.232 L625.856,321 L616.544,321 L616.544,287.4 Z M651.654,287.4 L662.07,287.4 L669.702,308.664 L677.334,287.4 L687.558,287.4 L673.926,321.24 L665.286,321.24 L651.654,287.4 Z M692.284,287.4 L701.644,287.4 L701.644,321 L692.284,321 L692.284,287.4 Z M709.058,287.4 L718.37,287.4 L718.37,312.84 L734.642,312.84 L734.642,321 L709.058,321 L709.058,287.4 Z M739.896,287.4 L749.208,287.4 L749.208,312.84 L765.48,312.84 L765.48,321 L739.896,321 L739.896,287.4 Z M770.734,287.4 L797.758,287.4 L797.758,295.32 L779.95,295.32 L779.95,300.408 L796.078,300.408 L796.078,307.752 L779.95,307.752 L779.95,313.08 L797.998,313.08 L797.998,321 L770.734,321 L770.734,287.4 Z M802.004,325.416 C805.300016,325.031998 806.9,323.528013 806.804,320.904 L803.108,320.904 L803.108,311.544 L812.612,311.544 L812.612,319.176 C812.612,320.968009 812.380002,322.471994 811.916,323.688 C811.451997,324.904006 810.788004,325.887996 809.924,326.64 C809.059995,327.392004 808.020006,327.951998 806.804,328.32 C805.587993,328.688002 804.228007,328.888 802.724,328.92 L802.004,325.416 Z M841.695999,295.56 L831.615999,295.56 L831.615999,287.4 L861.087999,287.4 L861.087999,295.56 L851.007999,295.56 L851.007999,321 L841.695999,321 L841.695999,295.56 Z M866.437999,287.4 L875.125999,287.4 L888.949999,305.16 L888.949999,287.4 L898.165999,287.4 L898.165999,321 L890.005999,321 L875.653999,302.568 L875.653999,321 L866.437999,321 L866.437999,287.4 Z" id="Combined-Shape" fill="#3F3F3F" fill-rule="nonzero"></path>
            <path d="M157,127 L187,127 L187,187 L127,187 L127,157 L157,127 Z M135,160.313708 L135,179 L179,179 L179,135 L160.313708,135 L135,160.313708 Z M175,175 L162,152 L175,139 L175,175 Z M175,175 L139,175 L152,162 L175,175 Z" id="Combined-Shape" fill="#E84C3D" fill-rule="nonzero"></path>
        </g>
    </g>
</svg>